<svg id="Capa_1" data-name="Capa 1" xmlns="http://www.w3.org/2000/svg" xmlns:xlink="http://www.w3.org/1999/xlink" viewBox="0 0 551.52 551.52"><defs><style>.cls-1{fill:url(#Degradado_sin_nombre_16);}.cls-2{fill:#fff;}</style><linearGradient id="Degradado_sin_nombre_16" y1="275.76" x2="551.52" y2="275.76" gradientUnits="userSpaceOnUse"><stop offset="0" stop-color="#ff00b8"/><stop offset="1" stop-color="#600045"/></linearGradient></defs><rect class="cls-1" width="551.52" height="551.52"/><path class="cls-2" d="M60.62,224h13.5a159.78,159.78,0,0,0,293,0h13.5a16,16,0,0,0,16-16V112a16,16,0,0,0-16-16h-13.5a159.78,159.78,0,0,0-293,0H60.62a16,16,0,0,0-16,16v96A16,16,0,0,0,60.62,224Zm40-88c0-22.1,21.5-40,48-40h144c26.5,0,48,17.9,48,40v24a96,96,0,0,1-96,96h-48a96,96,0,0,1-96-96Zm72,72,12-36,36-12-36-12-12-36-12,36-36,12,36,12Zm151.6,113.4a190.68,190.68,0,0,1-207.2,0c-67.5,7.1-120.4,63.6-120.4,133V464a48,48,0,0,0,48,48h80V448a32,32,0,0,1,32-32h128a32,32,0,0,1,32,32v64h80a48,48,0,0,0,48-48v-9.6C444.62,385,391.72,328.5,324.22,321.4ZM268.62,448a16,16,0,1,0,16,16A16,16,0,0,0,268.62,448Zm-96,0a16,16,0,0,0-16,16v48h32V464A16,16,0,0,0,172.62,448Z" transform="translate(55.14 19.76)"/></svg>