<?xml version="1.0" encoding="utf-8"?>
<!-- Generator: Adobe Illustrator 25.3.0, SVG Export Plug-In . SVG Version: 6.00 Build 0)  -->
<svg version="1.1" id="Capa_1" xmlns="http://www.w3.org/2000/svg" xmlns:xlink="http://www.w3.org/1999/xlink" x="0px" y="0px"
	 viewBox="0 0 1364 766" style="enable-background:new 0 0 1364 766;" xml:space="preserve">
<style type="text/css">
	.st0{fill:#FF00B8;}
	.st1{opacity:0.8;fill:#870067;enable-background:new    ;}
</style>
<path class="st0" d="M63.3,5.4L4.8,62.2V5.4H63.3 M76.2,0H0v74.3L76.2,0L76.2,0z"/>
<path class="st0" d="M1337,657.5l-76.2,74.3h76.2V657.5L1337,657.5z M1332.1,669.4v57.1h-58.5L1332.1,669.4"/>
<polyline class="st1" points="63.3,5.4 4.8,62.2 4.8,5.4 63.3,5.4 "/>
<path class="st0" d="M1359.1,598.2v0.1l-39.5-29.7V189.2l2.2-1.1v-0.5l42.2-21.1V0H98.2L0,96.9v69.4l42.1,21.1v0.7l2.3,1.1v379.5
	l-2.3,1.7v0L0,602.1V766h1364V601.9L1359.1,598.2z M1359.1,760.6H4.9V604.2l41.9-31.7V184.9L4.9,164V99.3l95.2-93.9h1259V164
	l-41.9,20.9v387.6l41.9,31.7V760.6z"/>
<polyline class="st1" points="1332.1,669.4 1332.1,726.5 1273.6,726.5 1332.1,669.4 "/>
</svg>
